<?xml version="1.0" encoding="UTF-8" standalone="no"?>
<!DOCTYPE svg PUBLIC "-//W3C//DTD SVG 1.1//EN" "http://www.w3.org/Graphics/SVG/1.1/DTD/svg11.dtd">
<svg viewBox="0 0 448 97" preserveAspectRatio="xMinYMid" version="1.1" xmlns="http://www.w3.org/2000/svg" xmlns:xlink="http://www.w3.org/1999/xlink" xml:space="preserve" style="fill-rule:evenodd;clip-rule:evenodd;stroke-linejoin:round;stroke-miterlimit:1.41421;"><g><path d="M245.518,76.968c0,0 0.337,0.24 0.337,0.616c0,0.375 -0.337,0.826 -0.337,0.826l-4.346,5.613l-5.021,-5.514c0,0 -0.544,-0.493 -0.544,-0.905c0,-0.414 0.262,-0.635 0.262,-0.635l-4.88,0c0,0 0.676,0.146 1.24,0.822c0.562,0.676 7.207,8.278 7.207,8.278c0,0 0,8.498 0,8.915c0,0.789 -0.488,1.351 -0.488,1.351l3.416,0c0,0 -0.488,-0.487 -0.488,-1.351c0,-0.484 0,-9.666 0,-9.666c0,0 5.33,-6.87 5.856,-7.508c0.526,-0.639 1.202,-0.842 1.202,-0.842l-3.416,0Z" style="fill:#001722;fill-rule:nonzero;" /><path d="M197.369,96.335c0,0 -0.338,-0.525 -0.338,-1.201c0,-0.677 1.952,-5.105 1.952,-5.105l7.884,0c0,0 2.102,4.767 2.102,5.406c0,0.638 -0.3,0.9 -0.3,0.9l4.279,0c0,0 -0.938,-0.487 -1.501,-1.839c-0.564,-1.351 -7.846,-19.332 -7.846,-19.332c0,0 -7.62,18.656 -7.958,19.557c-0.338,0.901 -1.239,1.614 -1.239,1.614l2.965,0ZM199.586,88.676l3.357,-8.22l3.398,8.222l-6.755,-0.002Z" style="fill:#001722;fill-rule:nonzero;" /><path d="M152.347,77.04c0,0 0.487,0.263 0.863,1.389c0.375,1.127 6.006,18.545 6.006,18.545l5.819,-15.166l6.343,15.166c0,0 5.669,-17.344 6.082,-18.507c0.413,-1.164 1.089,-1.427 1.089,-1.427l-2.853,0c0,0 0.263,0.526 0.263,0.826c0,0.3 -0.263,1.352 -0.263,1.352l-3.829,11.637l-6.044,-15.279l-5.668,14.903l-3.604,-10.812c0,0 -0.338,-0.9 -0.338,-1.501c0,-0.6 0.413,-1.126 0.413,-1.126l-4.279,0Z" style="fill:#001722;fill-rule:nonzero;" /><path d="M132.211,76.964c0,0 0.488,0.489 0.488,1.315c0,0.581 0,8.741 0,13.419l-14.434,-15.746c0,0 0,18.244 0,19.032c0,0.789 -0.488,1.351 -0.488,1.351l2.365,0c0,0 -0.488,-0.487 -0.488,-1.351c0,-0.442 0.002,-13.636 0.002,-13.636l13.845,15.124l0.437,0.014c0,0 0,-17.418 0,-18.207c0,-0.788 0.488,-1.315 0.488,-1.315l-2.215,0Z" style="fill:#001722;fill-rule:nonzero;" /><path d="M94.534,76.964l3.754,0c0,0 -0.487,0.527 -0.487,1.315c0,0.788 0,15.842 0,16.705c0,0.864 0.487,1.351 0.487,1.351l-3.754,0c0,0 0.488,-0.562 0.488,-1.351c0,-0.788 0,-15.879 0,-16.705c0,-0.826 -0.488,-1.315 -0.488,-1.315Z" style="fill:#001722;fill-rule:nonzero;" /><path d="M62.904,77.002l12.764,0l0,2.028c0,0 -0.676,-0.864 -2.178,-0.864c-1.501,0 -7.32,0 -7.32,0l0,7.17c0,0 4.955,0 5.668,0c0.714,0 1.427,-0.376 1.427,-0.376l0,2.028c0,0 -0.526,-0.3 -1.389,-0.3c-0.863,0 -5.706,0 -5.706,0l0,8.296c0,0 6.719,0 7.958,0c1.239,0 1.952,-0.751 1.952,-0.751l0,2.102c0,0 -12.275,0 -12.65,0c-0.376,0 -0.526,-0.074 -0.526,-0.412c0,-0.339 0.488,-0.377 0.488,-0.976c0,-0.601 0,-16.406 0,-16.968c0,-0.563 -0.488,-0.977 -0.488,-0.977Z" style="fill:#001722;fill-rule:nonzero;" /><path d="M28.923,76.964l18.281,0l-0.037,1.878c0,0 -0.488,-0.563 -1.427,-0.563c-0.938,0 -6.494,0 -6.494,0c0,0 0,15.842 0,16.705c0,0.864 0.563,1.351 0.563,1.351l-3.904,0c0,0 0.563,-0.562 0.563,-1.351c0,-0.788 0,-16.705 0,-16.705c0,0 -5.18,0 -6.344,0c-1.164,0 -1.239,0.488 -1.239,0.488l0.038,-1.803Z" style="fill:#001722;fill-rule:nonzero;" /><path d="M7.544,75.464c2.441,0 2.854,0.826 4.431,0.826c0.487,0 0.863,-0.263 0.863,-0.263l0,3.566c0,0 -3.078,-2.703 -5.594,-2.703c-2.515,0 -3.679,1.201 -3.679,2.891c0,2.065 1.502,3.003 5.782,4.467c4.279,1.463 4.955,4.204 4.955,6.043c0,4.917 -4.28,6.345 -7.133,6.345c-2.853,0 -5.518,-1.465 -6.081,-1.465c-0.563,0 -1.088,0.451 -1.088,0.451c0,0 0.037,-2.365 0,-3.979c1.614,1.651 3.453,3.341 6.756,3.379c3.304,0.037 4.58,-2.027 4.58,-3.942c0,-1.914 -1.576,-3.041 -4.617,-4.167c-3.041,-1.126 -6.194,-2.627 -6.194,-6.12c0,-3.49 3.904,-5.329 7.019,-5.329Z" style="fill:#001722;fill-rule:nonzero;" /><path d="M339.521,75.464c2.439,0 2.852,0.826 4.429,0.826c0.488,0 0.863,-0.263 0.863,-0.263l0,3.566c0,0 -3.078,-2.703 -5.593,-2.703c-2.515,0 -3.679,1.201 -3.679,2.891c0,2.065 1.501,3.003 5.781,4.467c4.281,1.463 4.955,4.204 4.955,6.043c0,4.917 -4.279,6.345 -7.131,6.345c-2.854,0 -5.519,-1.465 -6.082,-1.465c-0.564,0 -1.088,0.451 -1.088,0.451c0,0 0.037,-2.365 0,-3.979c1.613,1.651 3.453,3.341 6.756,3.379c3.303,0.037 4.581,-2.027 4.581,-3.942c0,-1.914 -1.578,-3.041 -4.619,-4.167c-3.04,-1.126 -6.194,-2.627 -6.194,-6.12c0,-3.49 3.904,-5.329 7.021,-5.329Z" style="fill:#001722;fill-rule:nonzero;" /><path d="M440.763,75.464c2.439,0 2.852,0.826 4.429,0.826c0.489,0 0.864,-0.263 0.864,-0.263l0,3.566c0,0 -3.078,-2.703 -5.594,-2.703c-2.516,0 -3.679,1.201 -3.679,2.891c0,2.065 1.502,3.003 5.781,4.467c4.279,1.463 4.956,4.204 4.956,6.043c0,4.917 -4.28,6.345 -7.132,6.345c-2.854,0 -5.52,-1.465 -6.082,-1.465c-0.564,0 -1.089,0.451 -1.089,0.451c0,0 0.037,-2.365 0,-3.979c1.614,1.651 3.453,3.341 6.758,3.379c3.302,0.037 4.579,-2.027 4.579,-3.942c0,-1.914 -1.576,-3.041 -4.617,-4.167c-3.041,-1.126 -6.195,-2.627 -6.195,-6.12c0,-3.49 3.904,-5.329 7.021,-5.329Z" style="fill:#001722;fill-rule:nonzero;" /><path d="M411.959,76.964c0,0 0.488,0.489 0.488,1.315c0,0.581 0,8.741 0,13.419l-14.434,-15.746c0,0 0,18.244 0,19.032c0,0.789 -0.488,1.351 -0.488,1.351l2.366,0c0,0 -0.489,-0.487 -0.489,-1.351c0,-0.442 0.002,-13.636 0.002,-13.636l13.845,15.124l0.438,0.014c0,0 0,-17.418 0,-18.207c0,-0.788 0.486,-1.315 0.486,-1.315l-2.214,0Z" style="fill:#001722;fill-rule:nonzero;" /><path d="M371.962,75.464c-6.543,0 -10.895,5.408 -10.895,10.515c0,5.784 5.2,11.021 10.769,11.021c6.125,0 10.726,-5.363 10.726,-10.641c0,-5.277 -4.561,-10.895 -10.6,-10.895ZM378.722,86.316c0,3.971 -2.408,9.248 -6.76,9.248c-4.899,0 -7.601,-4.735 -7.601,-9.462c0,-4.728 2.997,-9.078 7.432,-9.078c5.701,0 6.929,6.124 6.929,9.292Z" style="fill:#001722;fill-rule:nonzero;" /><path d="M288.679,75.687c-2.272,0 -5.903,1.317 -5.903,4.212c0,1.94 1.43,3.08 2.126,3.445c-1.283,0.656 -5.313,2.339 -5.313,6.741c0,2.202 1.829,6.343 7.622,6.343c5.792,0 7.731,-3.86 7.731,-6.235c0,-0.986 -0.253,-1.279 -0.253,-1.865c0,-0.586 0.111,-0.918 0.658,-1.318c0.547,-0.4 0.221,-1.173 -0.328,-0.768c-0.551,0.404 -3.338,2.49 -3.849,2.819c-0.511,0.328 -0.475,0.696 -0.329,0.918c0.146,0.222 0.4,0.329 0.547,0.218c0.146,-0.112 0.221,-0.182 0.514,-0.182c0.55,0 1.284,0.772 1.284,1.54c0,2.196 -2.57,3.591 -4.95,3.591c-2.379,0 -5.495,-1.94 -5.495,-5.753c0,-3.813 3.401,-5.277 6.045,-5.57c0.598,-0.069 0.657,-0.661 -0.478,-0.954c-1.347,-0.349 -2.93,-1.284 -2.93,-3.263c0,-1.98 1.575,-2.708 2.822,-2.708c1.247,0 2.86,0.618 3.338,0.986c0.48,0.367 1.132,0.078 1.132,-0.582c0,-0.661 -1.718,-1.615 -3.991,-1.615Z" style="fill:#001722;fill-rule:nonzero;" /><path d="M238.795,50.688c-3.036,0 -5.181,-1.675 -6.157,-3.604l1.653,0l0,-2.177l-2.244,0c-0.002,-0.05 -0.009,-0.101 -0.009,-0.15c0,-4.955 3.041,-6.035 4.018,-6.035c1.646,0 2.514,0.385 2.514,1.023c0,0.638 -1.501,0.488 -1.501,2.009c0,1.388 0.827,1.952 2.028,1.952c1.2,0 2.176,-1.089 2.176,-2.328c0,-1.239 -1.201,-3.904 -4.655,-3.904c-4.391,0 -5.93,4.655 -5.93,7.208c0,0.071 0.006,0.15 0.009,0.225l-1.211,0l0,-8.933c1.787,-1.242 2.89,-2.842 2.89,-4.131c0,-2.477 -2.139,-3.491 -2.139,-3.866c0,-0.376 0.151,-0.376 0.375,-0.451c0.225,-0.075 0.3,-0.225 0.3,-0.45c0,-0.226 -0.186,-0.338 -0.413,-0.338c-0.119,0 -0.592,0 -1.013,0l0,-14.472l3.753,0c0.533,4.936 4.112,9.999 6.608,14.021c2.703,4.355 6.907,10.399 6.907,15.467c0,5.067 -3.717,8.934 -7.959,8.934ZM207.563,43.706c1.201,0 2.027,-0.564 2.027,-1.952c0,-1.521 -1.501,-1.371 -1.501,-2.009c0,-0.638 0.868,-1.023 2.515,-1.023c0.975,0 4.016,1.08 4.016,6.035c0,0.049 -0.007,0.1 -0.008,0.15l-2.77,0l0,2.177l2.18,0c-0.978,1.929 -3.122,3.604 -6.159,3.604c-4.242,0 -7.958,-3.867 -7.958,-8.934c0,-5.068 4.204,-11.112 6.907,-15.467c2.497,-4.022 6.075,-9.085 6.608,-14.021l3.753,0l0,14.435c-2.025,1.452 -2.928,3.46 -2.928,5.33c0,1.676 0.954,3.399 2.928,4.554l0,8.322l-1.211,0c0.003,-0.075 0.009,-0.154 0.009,-0.225c0,-2.553 -1.539,-7.208 -5.93,-7.208c-3.454,0 -4.655,2.665 -4.655,3.904c0,1.239 0.976,2.328 2.177,2.328ZM222.653,12.266l0,5.361c-2.376,0.317 -3.265,2.275 -3.265,3.48c0,1.314 0.413,2.628 2.139,3.829c-1.184,0.225 -2.201,0.573 -3.078,1.005l0,-13.675l4.204,0ZM229.486,29.419c0.555,0.336 1.013,0.999 1.013,2.124c0,0.708 -0.297,1.674 -1.013,2.579l0,-4.703ZM224.005,37.923c1.556,-0.125 2.983,-0.567 4.205,-1.186l0,8.17l-4.205,0l0,-6.984ZM222.653,37.948l0,6.959l-4.204,0l0,-7.712c1.152,0.439 2.555,0.709 4.204,0.753ZM217.173,34.229c-0.71,-0.89 -1.089,-1.935 -1.089,-2.986c0,-0.65 0.316,-1.643 1.089,-2.62l0,5.606ZM222.653,30.161c-0.35,-0.132 -0.656,-0.309 -0.825,-0.458c-0.301,-0.262 -0.413,-0.337 -0.713,-0.337c-0.3,0 -0.263,0.3 -0.263,0.713c0,0.354 0.611,1.337 1.801,1.612l0,4.982c-1.711,-0.057 -3.129,-0.534 -4.204,-1.268l0,-8.01c1.004,-0.749 2.374,-1.377 4.204,-1.673l0,4.439ZM222.653,24.032c-0.862,-0.963 -1.238,-2.098 -1.238,-2.775c0,-0.839 0.584,-1.677 1.238,-2.05l0,4.825ZM224.005,31.634c0.765,-0.257 1.602,-0.83 2.14,-1.255c0.63,-0.497 1.318,-1.08 2.065,-1.21l0,6.132c-0.999,0.683 -2.364,1.207 -4.205,1.347l0,-5.014ZM228.21,12.266l0,14.895c-0.535,0.408 -1.33,1.028 -1.84,1.491c-0.659,0.599 -1.647,1.31 -2.365,1.576l0,-4.653c0.339,-0.022 0.685,-0.039 1.052,-0.039c-0.389,-0.11 -0.732,-0.266 -1.052,-0.439l0,-6.07c0.559,0.042 0.976,0.156 0.976,0.428c0,0.376 -0.225,0.376 -0.225,0.864c0,0.488 0.377,1.126 1.164,1.126c0.788,0 1.201,-0.375 1.201,-1.464c0,-0.962 -1.435,-2.097 -3.116,-2.35l0,-5.365l4.205,0ZM241.198,24.11c-3.379,-5.105 -6.081,-9.652 -6.081,-13.139c0,-3.486 1.084,-6.381 3.98,-6.381c1.876,0 2.575,1.262 2.575,1.736c0,0.474 -0.146,0.892 -0.802,0.892c-1.028,0 -1.474,0.83 -1.474,1.651c0,0.878 0.394,1.933 2.027,1.933c1.441,0 2.445,-1.623 2.445,-3.359c0,-1.258 -1.042,-4.059 -4.597,-4.059c-3.409,0 -5.883,2.164 -6.086,7.015l-3.699,0l0,-2.431l-1.276,0l0,2.431l-4.205,0l0,-3.13c1.573,-0.32 2.756,-1.711 2.756,-3.378c0,-1.904 -1.542,-3.448 -3.447,-3.448c-1.905,0 -3.448,1.544 -3.448,3.448c0,1.678 1.2,3.073 2.787,3.381l0,3.127l-4.204,0l0,-2.431l-1.276,0l0,2.431l-3.699,0c-0.202,-4.851 -2.678,-7.015 -6.085,-7.015c-3.557,0 -4.598,2.801 -4.598,4.059c0,1.736 1.004,3.359 2.444,3.359c1.633,0 2.028,-1.055 2.028,-1.933c0,-0.821 -0.446,-1.651 -1.474,-1.651c-0.657,0 -0.802,-0.418 -0.802,-0.892c0,-0.474 0.699,-1.736 2.576,-1.736c2.895,0 3.979,2.895 3.979,6.381c0,3.487 -2.703,8.034 -6.081,13.139c-3.379,5.105 -8.184,11.487 -8.184,17.343c0,5.856 4.129,10.812 10.511,10.812c4.697,0 6.908,-2.724 7.751,-5.181l5.35,0l0,5.436c-1.027,0.007 -1.989,0.005 -1.989,-0.03c-2.027,2.778 -5.706,4.279 -10.436,4.279l0,1.127l5.48,0l0,1.65l2.478,0l0,-1.65l5.406,0l0,1.65l3.003,0l0,-1.65l5.406,0l0,1.65l2.477,0l0,-1.65l5.481,0l0,-1.127c-4.73,0 -8.409,-1.501 -10.436,-4.279c0,0.035 -0.963,0.037 -1.989,0.03l0,-5.436l5.35,0c0.843,2.457 3.054,5.181 7.751,5.181c6.381,0 10.51,-4.956 10.51,-10.812c0,-5.856 -4.805,-12.238 -8.183,-17.343Z" style="fill:#001722;fill-rule:nonzero;" /></g></svg>